<svg width="24" height="24" viewBox="0 0 24 24" fill="none" xmlns="http://www.w3.org/2000/svg">
<g clip-path="url(#clip0_1303_1611)">
<path d="M16 15.8V20.1C16 20.6 15.8 21.1 15.4 21.5L14 22.9L10.1 19M4.89999 13.9L1 10L2.39999 8.59998C2.79999 8.19998 3.29999 8 3.79999 8H8.10001M7.1 19.1C7.7 19.7 8.49998 19.8 9.29998 19.5L11.3 18.7C15.6 17 19 13.6 20.8 9.30005L22.8 4.5C22.9 4.2 23 3.9 23 3.5C23 2.1 21.9 1 20.5 1C20.2 1 19.8 1.09995 19.5 1.19995L14.7 3.19995C10.4 4.99995 6.99998 8.39995 5.29998 12.7L4.49999 14.7C4.19999 15.4 4.39999 16.3 4.89999 16.9L7.1 19.1ZM5.39999 22.1L1 23L1.89999 18.6C1.99999 18.2 2.2 17.8 2.5 17.5C3.3 16.7 4.70001 16.7 5.60001 17.5L6.5 18.4C7.3 19.2 7.3 20.6 6.5 21.5C6.2 21.8 5.79999 22 5.39999 22.1ZM16 10C16 11.1046 15.1046 12 14 12C12.8954 12 12 11.1046 12 10C12 8.89543 12.8954 8 14 8C15.1046 8 16 8.89543 16 10Z" stroke="white" stroke-width="2" stroke-miterlimit="10" stroke-linecap="round" stroke-linejoin="round"/>
</g>
<defs>
<clipPath id="clip0_1303_1611">
<rect width="24" height="24" fill="white"/>
</clipPath>
</defs>
</svg>
